<mxfile host="drawio-plugin" modified="2024-02-17T21:58:27.943Z" agent="5.0 (Macintosh; Intel Mac OS X 10_15_7) AppleWebKit/537.36 (KHTML, like Gecko) Chrome/119.0.0.0 Safari/537.36" version="20.5.3" etag="0oWxUPpV486vmZOVHjT1" type="embed"><diagram id="zDOV1wamtfdLgKil1E5r" name="Page-1"><mxGraphModel dx="842" dy="756" grid="1" gridSize="10" guides="1" tooltips="1" connect="1" arrows="1" fold="1" page="1" pageScale="1" pageWidth="850" pageHeight="1100" math="0" shadow="0"><root><mxCell id="0"/><mxCell id="1" parent="0"/><mxCell id="33" value="" style="edgeStyle=orthogonalEdgeStyle;rounded=0;orthogonalLoop=1;jettySize=auto;html=1;" edge="1" parent="1" source="34" target="36"><mxGeometry relative="1" as="geometry"><mxPoint x="425" y="120" as="targetPoint"/></mxGeometry></mxCell><mxCell id="34" value="Inicio" style="ellipse;whiteSpace=wrap;html=1;" vertex="1" parent="1"><mxGeometry x="387" y="40" width="75" height="40" as="geometry"/></mxCell><mxCell id="35" value="" style="edgeStyle=orthogonalEdgeStyle;rounded=0;orthogonalLoop=1;jettySize=auto;html=1;entryX=0.5;entryY=0;entryDx=0;entryDy=0;" edge="1" parent="1" source="36" target="38"><mxGeometry relative="1" as="geometry"><mxPoint x="425" y="200" as="targetPoint"/></mxGeometry></mxCell><mxCell id="36" value="fillMainVector()" style="shape=process;whiteSpace=wrap;html=1;backgroundOutline=1;" vertex="1" parent="1"><mxGeometry x="365" y="120" width="120" height="40" as="geometry"/></mxCell><mxCell id="37" style="edgeStyle=orthogonalEdgeStyle;rounded=0;orthogonalLoop=1;jettySize=auto;html=1;entryX=0.5;entryY=0;entryDx=0;entryDy=0;" edge="1" parent="1" source="38" target="40"><mxGeometry relative="1" as="geometry"/></mxCell><mxCell id="38" value="getMainVectorSize()" style="shape=process;whiteSpace=wrap;html=1;backgroundOutline=1;" vertex="1" parent="1"><mxGeometry x="347" y="200" width="156" height="40" as="geometry"/></mxCell><mxCell id="39" style="edgeStyle=orthogonalEdgeStyle;rounded=0;orthogonalLoop=1;jettySize=auto;html=1;entryX=0.5;entryY=0;entryDx=0;entryDy=0;" edge="1" parent="1" source="40" target="42"><mxGeometry relative="1" as="geometry"/></mxCell><mxCell id="40" value="agesQuantity = getMainVectorSize" style="rounded=0;whiteSpace=wrap;html=1;" vertex="1" parent="1"><mxGeometry x="322" y="275" width="206" height="45" as="geometry"/></mxCell><mxCell id="41" style="edgeStyle=orthogonalEdgeStyle;rounded=0;orthogonalLoop=1;jettySize=auto;html=1;entryX=0.5;entryY=0;entryDx=0;entryDy=0;" edge="1" parent="1" source="42" target="64"><mxGeometry relative="1" as="geometry"><mxPoint x="425" y="440" as="targetPoint"/></mxGeometry></mxCell><mxCell id="42" value="int* ageArray = fillMainVector(agesQuantity)" style="rounded=0;whiteSpace=wrap;html=1;" vertex="1" parent="1"><mxGeometry x="322" y="360" width="206" height="45" as="geometry"/></mxCell><mxCell id="43" style="edgeStyle=orthogonalEdgeStyle;rounded=0;orthogonalLoop=1;jettySize=auto;html=1;entryX=0.5;entryY=0;entryDx=0;entryDy=0;exitX=0.5;exitY=1;exitDx=0;exitDy=0;" edge="1" parent="1" source="64" target="65"><mxGeometry relative="1" as="geometry"><mxPoint x="425" y="480" as="sourcePoint"/><mxPoint x="425" y="520" as="targetPoint"/></mxGeometry></mxCell><mxCell id="45" value="i &lt;br&gt;&amp;lt;&lt;br&gt;agesQuantity" style="rhombus;whiteSpace=wrap;html=1;rounded=0;" vertex="1" parent="1"><mxGeometry x="362" y="599" width="125" height="110" as="geometry"/></mxCell><mxCell id="46" value="" style="edgeStyle=orthogonalEdgeStyle;rounded=0;orthogonalLoop=1;jettySize=auto;html=1;exitX=0.5;exitY=1;exitDx=0;exitDy=0;entryX=0.5;entryY=0;entryDx=0;entryDy=0;" edge="1" parent="1" source="45" target="48"><mxGeometry relative="1" as="geometry"><mxPoint x="425" y="699" as="sourcePoint"/><mxPoint x="425" y="759" as="targetPoint"/></mxGeometry></mxCell><mxCell id="47" value="Si" style="text;html=1;align=center;verticalAlign=middle;resizable=0;points=[];autosize=1;strokeColor=none;fillColor=none;" vertex="1" parent="1"><mxGeometry x="425" y="719" width="30" height="30" as="geometry"/></mxCell><mxCell id="48" value="ageArray [ i ]&lt;br&gt;&amp;lt;&amp;nbsp;&lt;br&gt;lowerAge" style="rhombus;whiteSpace=wrap;html=1;rounded=0;" vertex="1" parent="1"><mxGeometry x="349" y="749" width="152" height="120" as="geometry"/></mxCell><mxCell id="49" value="lowerAge&amp;nbsp;= ageArray [ i ]" style="whiteSpace=wrap;html=1;rounded=0;" vertex="1" parent="1"><mxGeometry x="490" y="849" width="140" height="40" as="geometry"/></mxCell><mxCell id="50" value="" style="endArrow=classic;html=1;rounded=0;exitX=1;exitY=0.5;exitDx=0;exitDy=0;entryX=0.5;entryY=0;entryDx=0;entryDy=0;" edge="1" parent="1" source="48" target="49"><mxGeometry width="50" height="50" relative="1" as="geometry"><mxPoint x="561" y="579" as="sourcePoint"/><mxPoint x="611" y="529" as="targetPoint"/><Array as="points"><mxPoint x="538" y="809"/><mxPoint x="560" y="809"/></Array></mxGeometry></mxCell><mxCell id="51" value="" style="endArrow=none;html=1;rounded=0;exitX=0;exitY=0.5;exitDx=0;exitDy=0;entryX=0.5;entryY=1;entryDx=0;entryDy=0;" edge="1" parent="1" source="48" target="49"><mxGeometry width="50" height="50" relative="1" as="geometry"><mxPoint x="491" y="929" as="sourcePoint"/><mxPoint x="538" y="1049" as="targetPoint"/><Array as="points"><mxPoint x="301" y="809"/><mxPoint x="301" y="929"/><mxPoint x="560" y="929"/></Array></mxGeometry></mxCell><mxCell id="52" value="i ++" style="whiteSpace=wrap;html=1;rounded=0;" vertex="1" parent="1"><mxGeometry x="365" y="980" width="120" height="40" as="geometry"/></mxCell><mxCell id="53" value="" style="endArrow=classic;html=1;rounded=0;entryX=0.5;entryY=0;entryDx=0;entryDy=0;" edge="1" parent="1" target="52"><mxGeometry width="50" height="50" relative="1" as="geometry"><mxPoint x="425" y="929" as="sourcePoint"/><mxPoint x="551" y="799" as="targetPoint"/></mxGeometry></mxCell><mxCell id="54" value="" style="endArrow=classic;html=1;rounded=0;exitX=0;exitY=0.5;exitDx=0;exitDy=0;" edge="1" parent="1" source="45"><mxGeometry width="50" height="50" relative="1" as="geometry"><mxPoint x="461" y="949" as="sourcePoint"/><mxPoint x="425" y="1199" as="targetPoint"/><Array as="points"><mxPoint x="251" y="654"/><mxPoint x="251" y="1080"/><mxPoint x="425" y="1080"/></Array></mxGeometry></mxCell><mxCell id="55" value="" style="endArrow=classic;html=1;rounded=0;exitX=0.5;exitY=1;exitDx=0;exitDy=0;" edge="1" parent="1" source="52"><mxGeometry width="50" height="50" relative="1" as="geometry"><mxPoint x="421" y="1080" as="sourcePoint"/><mxPoint x="425" y="580" as="targetPoint"/><Array as="points"><mxPoint x="425" y="1060"/><mxPoint x="650" y="1060"/><mxPoint x="651" y="580"/></Array></mxGeometry></mxCell><mxCell id="56" style="edgeStyle=orthogonalEdgeStyle;rounded=0;orthogonalLoop=1;jettySize=auto;html=1;entryX=0.5;entryY=0;entryDx=0;entryDy=0;" edge="1" parent="1" source="57" target="58"><mxGeometry relative="1" as="geometry"/></mxCell><mxCell id="57" value="print lowerAge" style="shape=parallelogram;perimeter=parallelogramPerimeter;whiteSpace=wrap;html=1;fixedSize=1;" vertex="1" parent="1"><mxGeometry x="365" y="1100" width="120" height="40" as="geometry"/></mxCell><mxCell id="58" value="Inicio" style="ellipse;whiteSpace=wrap;html=1;" vertex="1" parent="1"><mxGeometry x="388" y="1180" width="75" height="40" as="geometry"/></mxCell><mxCell id="59" value="No" style="text;html=1;align=center;verticalAlign=middle;resizable=0;points=[];autosize=1;strokeColor=none;fillColor=none;" vertex="1" parent="1"><mxGeometry x="310" y="784" width="40" height="30" as="geometry"/></mxCell><mxCell id="60" value="Si" style="text;html=1;align=center;verticalAlign=middle;resizable=0;points=[];autosize=1;strokeColor=none;fillColor=none;" vertex="1" parent="1"><mxGeometry x="515" y="784" width="30" height="30" as="geometry"/></mxCell><mxCell id="61" value="No" style="text;html=1;align=center;verticalAlign=middle;resizable=0;points=[];autosize=1;strokeColor=none;fillColor=none;" vertex="1" parent="1"><mxGeometry x="290" y="624" width="40" height="30" as="geometry"/></mxCell><mxCell id="62" style="edgeStyle=orthogonalEdgeStyle;rounded=0;orthogonalLoop=1;jettySize=auto;html=1;entryX=0.5;entryY=0;entryDx=0;entryDy=0;exitX=0.5;exitY=1;exitDx=0;exitDy=0;" edge="1" parent="1" source="65" target="45"><mxGeometry relative="1" as="geometry"><mxPoint x="425" y="560" as="sourcePoint"/></mxGeometry></mxCell><mxCell id="64" value="lowerAge = ageArray [0]" style="whiteSpace=wrap;html=1;rounded=0;" vertex="1" parent="1"><mxGeometry x="350" y="440" width="150" height="40" as="geometry"/></mxCell><mxCell id="65" value="int i = 1" style="whiteSpace=wrap;html=1;rounded=0;" vertex="1" parent="1"><mxGeometry x="365" y="520" width="120" height="40" as="geometry"/></mxCell></root></mxGraphModel></diagram></mxfile>